<?xml version="1.0" standalone="no"?>
<!DOCTYPE svg PUBLIC "-//W3C//DTD SVG 20010904//EN"
 "http://www.w3.org/TR/2001/REC-SVG-20010904/DTD/svg10.dtd">
<svg version="1.0" xmlns="http://www.w3.org/2000/svg"
 width="322.000000pt" height="322.000000pt" viewBox="0 0 322.000000 322.000000"
 preserveAspectRatio="xMidYMid meet">
<metadata>
Created by potrace 1.11, written by Peter Selinger 2001-2013
</metadata>
<g transform="translate(0.000000,322.000000) scale(0.100000,-0.100000)"
fill="#000000" stroke="none">
<path d="M500 3115 l0 -105 28 -1 c15 0 239 0 498 0 l472 0 4 -22 c2 -12 3
-439 3 -949 l-1 -928 106 0 106 0 -1 428 c0 235 1 435 3 444 3 13 11 16 36 11
194 -34 370 -127 502 -265 168 -176 258 -407 249 -643 -4 -117 -11 -152 -46
-258 -124 -375 -477 -623 -869 -612 -119 3 -153 9 -266 46 -304 100 -538 369
-595 682 -9 51 -13 84 -18 160 -1 4 -49 7 -107 7 l-107 0 6 -84 c18 -231 110
-455 262 -635 149 -175 359 -304 590 -362 99 -24 340 -35 415 -18 22 5 56 12
76 15 65 10 157 43 259 94 288 141 499 403 581 720 51 194 39 446 -28 634 -58
163 -158 315 -285 437 -162 154 -337 243 -567 288 l-90 17 0 502 0 502 -608 0
-608 0 0 -105z"/>
</g>
</svg>
