<?xml version="1.0" standalone="no"?>
<!DOCTYPE svg PUBLIC "-//W3C//DTD SVG 20010904//EN"
 "http://www.w3.org/TR/2001/REC-SVG-20010904/DTD/svg10.dtd">
<svg version="1.0" xmlns="http://www.w3.org/2000/svg"
 width="422.000000pt" height="422.000000pt" viewBox="0 0 422.000000 422.000000"
 preserveAspectRatio="xMidYMid meet">
<metadata>
Created by potrace 1.11, written by Peter Selinger 2001-2013
</metadata>
<g transform="translate(0.000000,422.000000) scale(0.100000,-0.100000)"
fill="#000000" stroke="none">
<path d="M660 4081 l0 -138 633 -1 c347 0 642 -1 655 -1 l22 -1 0 -1244 0
-1244 140 0 140 0 0 585 0 584 38 -7 c305 -52 566 -206 748 -444 120 -155 204
-347 229 -520 4 -25 9 -56 11 -70 5 -35 5 -249 0 -258 -2 -4 -6 -30 -10 -58
-10 -83 -54 -223 -103 -324 -25 -52 -49 -97 -53 -100 -4 -3 -13 -16 -20 -30
-20 -38 -122 -159 -181 -216 -136 -129 -312 -225 -514 -281 -80 -22 -179 -31
-310 -28 -82 1 -159 5 -170 8 -11 3 -50 12 -87 21 -140 33 -317 117 -428 204
-133 104 -269 270 -344 420 -32 62 -83 213 -92 268 -3 21 -8 42 -10 46 -2 4
-7 49 -11 100 -3 51 -7 94 -8 96 -2 2 -190 5 -249 3 l-28 -1 5 -89 c12 -185
56 -357 136 -526 143 -303 369 -533 666 -679 236 -117 411 -156 670 -151 96 2
194 10 245 20 186 37 377 115 529 217 351 235 583 606 639 1023 9 67 9 317 -1
385 -56 402 -284 771 -618 1000 -185 127 -376 203 -607 240 l-72 12 0 659 0
659 -795 0 -795 0 0 -139z"/>
</g>
</svg>
